<?xml version="1.0" encoding="UTF-8" standalone="no"?>
<!-- Created with Inkscape (http://www.inkscape.org/) -->

<svg
   width="59.53125mm"
   height="59.53125mm"
   viewBox="0 0 59.53125 59.53125"
   version="1.1"
   id="svg5"
   xml:space="preserve"
   xmlns="http://www.w3.org/2000/svg"
   xmlns:svg="http://www.w3.org/2000/svg"><defs
     id="defs2" /><g
     id="layer1"
     transform="translate(-70.246872,-110.72813)"><path
       style="fill:#00aacc;stroke-width:1"
       d="m 81.469551,168.99375 c -1.052065,-0.7538 -1.866397,-1.50133 -1.809626,-1.66118 0.05677,-0.15986 3.633694,-5.50424 7.948719,-11.87642 4.315025,-6.37218 7.748296,-11.68298 7.629492,-11.80179 -0.118805,-0.1188 -5.270824,-2.36967 -11.448931,-5.00192 -6.178108,-2.63225 -11.291594,-4.84458 -11.363303,-4.91628 -0.150815,-0.15082 1.080233,-3.81304 1.334588,-3.97024 0.09341,-0.0577 5.441953,1.79864 11.885649,4.12527 6.443695,2.32663 11.755692,4.19036 11.804442,4.14161 0.07884,-0.0788 0.87087,-23.68828 0.877945,-26.17053 l 0.0028,-0.99219 h 2.248964 2.24896 l 0.003,0.99219 c 0.007,2.48225 0.7991,26.09169 0.87794,26.17053 0.0487,0.0488 5.36075,-1.81498 11.80444,-4.14161 6.4437,-2.32663 11.79223,-4.183 11.88564,-4.12527 0.24961,0.15427 1.48684,3.81799 1.33919,3.96564 -0.0692,0.0692 -5.1831,2.28871 -11.36426,4.9323 -6.18117,2.64359 -11.33013,4.8914 -11.44213,4.99512 -0.112,0.10372 3.31696,5.39495 7.61991,11.75829 4.30296,6.36333 7.87984,11.71638 7.94864,11.89565 0.0707,0.18425 -0.72504,0.91695 -1.83046,1.68545 l -1.95553,1.35949 -8.55818,-11.74841 c -4.70699,-6.46162 -8.63288,-11.66083 -8.72419,-11.55378 -0.0913,0.10704 -3.807023,5.19524 -8.257137,11.30712 -4.450113,6.11187 -8.249171,11.31253 -8.44235,11.55701 -0.319897,0.40485 -0.521906,0.32222 -2.264081,-0.92605 z"
       id="path302" /></g></svg>
