<?xml version="1.0" encoding="UTF-8" standalone="no"?>
<!-- Created with Inkscape (http://www.inkscape.org/) -->

<svg
   width="91.926926mm"
   height="32.565365mm"
   viewBox="0 0 91.926926 32.565365"
   version="1.1"
   id="svg5"
   xml:space="preserve"
   inkscape:version="1.2.1 (9c6d41e4, 2022-07-14)"
   sodipodi:docname="verkefni 7 - logo.svg"
   xmlns:inkscape="http://www.inkscape.org/namespaces/inkscape"
   xmlns:sodipodi="http://sodipodi.sourceforge.net/DTD/sodipodi-0.dtd"
   xmlns="http://www.w3.org/2000/svg"
   xmlns:svg="http://www.w3.org/2000/svg"><sodipodi:namedview
     id="namedview7"
     pagecolor="#ffffff"
     bordercolor="#000000"
     borderopacity="0.25"
     inkscape:showpageshadow="2"
     inkscape:pageopacity="0.0"
     inkscape:pagecheckerboard="0"
     inkscape:deskcolor="#d1d1d1"
     inkscape:document-units="mm"
     showgrid="false"
     inkscape:zoom="1.9364752"
     inkscape:cx="145.10901"
     inkscape:cy="71.2635"
     inkscape:window-width="1440"
     inkscape:window-height="900"
     inkscape:window-x="0"
     inkscape:window-y="0"
     inkscape:window-maximized="0"
     inkscape:current-layer="layer1" /><defs
     id="defs2" /><g
     inkscape:label="Layer 1"
     inkscape:groupmode="layer"
     id="layer1"
     transform="translate(-66.777957,-82.719826)"><path
       style="fill:#00000f;stroke:none;stroke-width:1"
       d="m 76.966547,90.414338 c 4.427299,-2.464858 12.205705,-8.866981 17.727082,-6.47356 3.960284,1.716881 4.116123,6.961716 8.995831,7.002726 -3.32766,-1.883304 -4.375147,-5.803635 -7.672914,-7.491941 -4.59695,-2.353204 -11.523874,1.509183 -15.345833,3.970867 -1.341014,0.863864 -2.727087,1.718204 -3.704166,2.991908 m 31.220833,-7.672917 v 0.264584 c 6.05843,0 11.82238,1.520295 17.19792,4.301595 2.07142,1.071827 3.89519,3.306498 6.08541,3.992298 1.91902,0.601133 4.34128,0.484188 6.35,0.773642 3.78222,0.545041 7.42051,1.370541 11.1125,2.340239 1.58909,0.417248 3.66342,0.459317 5.02603,1.428221 1.7264,1.227402 3.44275,4.72599 4.02563,6.74317 0.43021,1.48934 0.0624,2.99799 -0.0558,4.49792 2.06799,-3.42953 -0.28231,-10.263455 -3.70522,-12.064209 -6.61882,-3.482445 -14.97198,-2.249752 -21.95936,-4.324614 -2.83739,-0.842698 -5.48984,-3.39725 -8.20208,-4.709583 -4.99322,-2.415646 -10.39072,-3.243263 -15.875,-3.243263 m 6.61458,1.852084 v 0.264583 c 3.04059,0.831585 6.36561,2.691871 8.20209,5.291666 l -2.11667,0.529167 v 0.264583 l 8.20208,0.264584 c -2.94984,-3.623204 -9.66152,-6.412971 -14.2875,-6.614583 m -24.606247,5.027083 c 2.278089,-0.548746 5.480843,-0.9271 5.820833,2.116666 1.255183,-0.364066 2.24446,-1.881452 0.943504,-2.947987 -1.462881,-1.199092 -5.745374,-0.706173 -6.764337,0.831321 m 13.493747,1.852083 v 0.264583 c 7.13952,0 14.54891,0.763059 21.16667,3.66739 3.27236,1.436158 5.93116,3.582194 8.99583,5.328446 -1.45759,-3.443555 -4.86754,-5.504394 -8.20208,-6.825194 -7.23371,-2.865702 -14.37984,-2.435225 -21.96042,-2.435225 m 18.52084,0.264583 v 0.264584 c 10.55158,0.0011 19.24975,4.713022 29.10416,7.408333 -6.02827,-8.552127 -19.91677,-7.672917 -29.10416,-7.672917 m -8.46667,2.38125 6.61458,4.233334 c -0.87894,-1.520296 -1.99522,-2.667265 -3.70416,-3.175 v -0.264584 c 5.73987,0.247121 9.64141,3.113352 14.55208,5.556246 -4.05183,-5.009087 -11.42471,-6.349996 -17.4625,-6.349996 m -46.83125,2.910417 c 7.795895,-1.146175 14.670511,-1.344877 22.489583,0.32041 4.779698,1.017852 9.488487,3.204109 14.287497,3.912919 1.39674,-3.336921 5.10381,-6.942662 8.73099,-4.129083 1.93781,1.503098 2.47121,3.502023 3.70443,5.452003 l 2.11667,-2.645833 c -1.33906,-2.921529 -5.04958,-4.652697 -8.20209,-4.47331 -2.4257,0.138113 -4.79822,1.683808 -7.14375,1.655763 -2.6035,-0.03122 -5.357281,-0.963877 -7.937497,-1.343819 -5.45629,-0.803804 -10.890012,-1.394883 -16.404166,-1.394883 -3.607779,0 -9.044226,-0.383911 -11.641667,2.645833 m 84.93125,-1.058333 1.5875,4.233332 h 0.26458 l -0.52917,-3.174999 1.5875,2.910416 h 0.26459 c -0.28364,-2.095235 -1.04378,-3.429793 -3.175,-3.968749 m -83.608333,3.704166 c 3.759914,-1.500187 5.555191,2.180436 6.614583,5.291666 0.889926,-3.76634 -3.902498,-11.679501 -6.614583,-5.291666 M 107.65821,114.756 c -2.159,-4.12062 -2.42226,-10.80558 3.175,-12.49389 1.34911,-0.40719 2.61461,-0.11562 3.96875,0.0585 -2.27647,-2.747436 -6.55346,-2.718332 -8.85587,0.0246 -2.9374,3.49991 -2.60006,10.16768 1.71212,12.41081 m 14.2875,-14.2875 v 0.26459 c 10.47724,2.16244 23.81515,6.6593 33.86667,0.79375 v -0.26459 c -10.63546,4.36219 -22.95446,0.61542 -33.86667,-0.79375 m -52.65208,14.81667 c -1.307242,-3.20357 -1.808146,-6.44922 -0.608581,-9.78958 0.62652,-1.74467 1.790951,-3.27581 3.783581,-2.91042 -1.717992,-2.25504 -3.841935,-0.88477 -4.794144,1.32292 -1.280276,2.96836 -1.543725,9.44271 1.619144,11.37708 m 1.384988,-10.27218 c -1.761453,0.81968 -1.287753,5.60202 -0.940329,7.09692 0.152321,0.65563 0.601742,2.17937 1.579113,1.74466 1.769268,-0.7874 1.313259,-5.55916 0.971153,-7.03607 -0.153326,-0.66198 -0.613119,-2.26933 -1.609937,-1.80551 m 40.948612,-0.13812 c -4.09417,1.26868 -2.6379,8.99293 1.85076,7.59143 4.05897,-1.26709 2.54926,-8.95509 -1.85076,-7.59143 m 15.87473,0.8853 v 0.26458 c 1.4232,0.42281 2.7014,1.34938 3.47716,2.64584 0.34819,0.58182 0.33099,1.69412 0.91492,2.08571 1.09723,0.73554 4.80907,0.031 6.19125,0.031 -3.02947,-2.1709 -6.70612,-5.0165 -10.58333,-5.02708 m 22.225,5.55625 v 0.26458 c 1.25651,-0.15901 2.68711,-0.19182 3.64781,-1.11865 1.54517,-1.4912 1.61264,-3.68591 4.02511,-4.17301 -2.62361,-1.56104 -5.30014,3.89599 -7.67292,5.02708 m -70.379163,-3.70417 v 0.26459 l 20.637499,2.91041 v 0.26459 L 75.64363,111.581 v 0.26459 c 9.062614,0 19.009783,-1.21735 27.78125,1.5875 l -2.43761,-4.22593 -6.558224,-0.56039 -15.081249,-1.03452 m 37.570833,2.38125 0.64399,2.35003 3.32476,-0.52493 6.61458,-0.50218 v -0.26458 c -2.99217,-0.71226 -8.62436,1.00462 -10.58333,-1.05834 z"
       id="path419" /></g></svg>
